<mxfile host="app.diagrams.net" modified="2023-04-13T15:42:43.720Z" agent="Mozilla/5.0 (Macintosh; Intel Mac OS X 10_15_7) AppleWebKit/537.36 (KHTML, like Gecko) Chrome/112.0.0.0 Safari/537.36" version="21.1.7" etag="3aiTv_voQskuCJs_DP20" type="github">
  <diagram name="第 1 页" id="Vqd2SLySueuXtNJ2wb-T">
    <mxGraphModel>
      <root>
        <mxCell id="0" />
        <mxCell id="1" parent="0" />
      </root>
    </mxGraphModel>
  </diagram>
</mxfile>
